<svg width="106" height="85" viewBox="0 0 106 85" fill="none" xmlns="http://www.w3.org/2000/svg">
<path d="M0.9375 68H17.25V10.1875H0V0.1875H44.875C49.2917 0.1875 53.2292 0.229167 56.6875 0.3125C60.1875 0.395833 63.25 0.5 65.875 0.625C68.5417 0.75 70.8542 0.916667 72.8125 1.125C74.7708 1.33333 76.4583 1.5625 77.875 1.8125C81.2917 2.4375 84.1875 3.33333 86.5625 4.5C88.9792 5.66667 90.9375 7.0625 92.4375 8.6875C93.9375 10.3125 95.0208 12.1458 95.6875 14.1875C96.3958 16.1875 96.75 18.3542 96.75 20.6875C96.75 22.3542 96.3958 24.0625 95.6875 25.8125C94.9792 27.5208 93.875 29.1667 92.375 30.75C90.9167 32.2917 89.0625 33.7083 86.8125 35C84.6042 36.2917 82 37.3333 79 38.125C82.0417 38.5 84.75 39.25 87.125 40.375C89.5417 41.4583 91.5625 42.8125 93.1875 44.4375C94.8542 46.0208 96.1042 47.8125 96.9375 49.8125C97.8125 51.8125 98.25 53.8958 98.25 56.0625C98.25 58.6042 97.8958 60.9583 97.1875 63.125C96.4792 65.25 95.3125 67.1667 93.6875 68.875C92.1042 70.5833 90.0208 72.0625 87.4375 73.3125C84.8542 74.5208 81.6875 75.4792 77.9375 76.1875C73.8958 76.9375 69.25 77.4375 64 77.6875C58.7917 77.8958 52.7708 78 45.9375 78H0.9375V68ZM45.9375 82.375C52.5625 82.375 58.6458 82.2917 64.1875 82.125C69.7708 82 74.6458 81.5208 78.8125 80.6875C83.4792 79.7708 87.3542 78.4583 90.4375 76.75C93.5208 75 95.9583 73.0208 97.75 70.8125C99.5833 68.6042 100.854 66.2083 101.562 63.625C102.312 61.0417 102.688 58.4375 102.688 55.8125C102.688 53.9792 102.417 52.1875 101.875 50.4375C101.333 48.6458 100.5 46.9792 99.375 45.4375C98.25 43.8958 96.8125 42.5 95.0625 41.25C93.3125 39.9583 91.2292 38.8958 88.8125 38.0625C93.1042 35.9375 96.25 33.4375 98.25 30.5625C100.25 27.6458 101.25 24.3542 101.25 20.6875C101.25 17.0625 100.271 13.625 98.3125 10.375C96.3542 7.08333 93.1458 4.3125 88.6875 2.0625C91.1875 2.6875 93.375 3.60417 95.25 4.8125C97.125 5.97917 98.6875 7.35417 99.9375 8.9375C101.229 10.5208 102.188 12.2708 102.812 14.1875C103.438 16.1042 103.75 18.1042 103.75 20.1875C103.75 23.9792 102.979 27.2917 101.438 30.125C99.8958 32.9167 97.4167 35.5208 94 37.9375C98 40.0625 100.854 42.6667 102.562 45.75C104.312 48.7917 105.188 52.1458 105.188 55.8125C105.188 59.0625 104.729 62.1458 103.812 65.0625C102.896 67.9375 101.396 70.5625 99.3125 72.9375C97.2708 75.2708 94.6042 77.2917 91.3125 79C88.0625 80.75 84.0625 82.0833 79.3125 83C75.1042 83.8333 70.2708 84.3333 64.8125 84.5C59.3958 84.6667 53.1042 84.75 45.9375 84.75H4.9375V82.375H45.9375ZM54.6875 34.5625C59.8125 34.5625 64.0417 34.3125 67.375 33.8125C70.75 33.3125 73.4375 32.5417 75.4375 31.5C77.4375 30.4167 78.8333 29.0833 79.625 27.5C80.4583 25.875 80.875 23.9375 80.875 21.6875C80.875 19.4375 80.1667 17.4167 78.75 15.625C77.3333 13.8333 75.0625 12.4583 71.9375 11.5C69.8125 10.875 67.3542 10.5 64.5625 10.375C61.7708 10.25 58.4792 10.1875 54.6875 10.1875H31.5V34.5625H54.6875ZM36 14.5625H54.6875C57.8542 14.5625 60.5833 14.6458 62.875 14.8125C65.1667 14.9375 67.125 15.1875 68.75 15.5625C70.375 15.9375 71.75 16.4375 72.875 17.0625C74 17.6458 75 18.3958 75.875 19.3125C75.0417 18.9375 74.0417 18.6042 72.875 18.3125C71.75 18.0208 70.3542 17.7708 68.6875 17.5625C67.0208 17.3542 65.0417 17.2083 62.75 17.125C60.5 17 57.8125 16.9375 54.6875 16.9375H38.5V30.8125H36V14.5625ZM3.75 14.5625H14.625V17.0625H3.75V14.5625ZM55.875 68C60.1667 68 63.8542 67.8958 66.9375 67.6875C70.0208 67.4375 72.6875 66.8958 74.9375 66.0625C76.3542 65.5208 77.5208 64.875 78.4375 64.125C79.3958 63.375 80.1458 62.5625 80.6875 61.6875C81.2292 60.7708 81.6042 59.7917 81.8125 58.75C82.0208 57.7083 82.125 56.625 82.125 55.5C82.125 52.75 81.2708 50.375 79.5625 48.375C77.8958 46.3333 75.2917 44.7917 71.75 43.75C69.5833 43.125 67.1042 42.75 64.3125 42.625C61.5208 42.4583 58.3542 42.375 54.8125 42.375H31.5V68H55.875ZM36 46.75H54.6875C57.8542 46.75 60.6458 46.8542 63.0625 47.0625C65.4792 47.2708 67.5625 47.6042 69.3125 48.0625C71.1042 48.4792 72.625 49.0208 73.875 49.6875C75.125 50.3125 76.1875 51.0833 77.0625 52C75.9792 51.5 74.8125 51.0833 73.5625 50.75C72.3542 50.375 70.8958 50.0625 69.1875 49.8125C67.4792 49.5625 65.4583 49.3958 63.125 49.3125C60.7917 49.1875 57.9792 49.125 54.6875 49.125H38.5V64.25H36V46.75Z" fill="black"/>
</svg>
